<?xml version="1.0" encoding="utf-8"?>
<!-- Generator: Adobe Illustrator 15.1.0, SVG Export Plug-In . SVG Version: 6.00 Build 0)  -->
<!DOCTYPE svg PUBLIC "-//W3C//DTD SVG 1.1//EN" "http://www.w3.org/Graphics/SVG/1.1/DTD/svg11.dtd">
<svg version="1.1" id="Layer_1" xmlns="http://www.w3.org/2000/svg" xmlns:xlink="http://www.w3.org/1999/xlink" x="0px" y="0px"
	 width="1600px" height="1599px" viewBox="0 0 1600 1599" enable-background="new 0 0 1600 1599" xml:space="preserve">
<path fill-rule="evenodd" clip-rule="evenodd" d="M1098,904c8.203-18.564,4.082-46.863,2-69c17.345-17.126,34.719,14.732,30,38
	C1126.744,889.057,1106.796,900.271,1098,904z"/>
<path fill-rule="evenodd" clip-rule="evenodd" d="M1056,976c-3.102,7.571,3.146,33.143-5,39c-10.309-3.357-13.277-14.056-14-27
	C1042.589,983.256,1050.899,981.233,1056,976z"/>
<path fill-rule="evenodd" clip-rule="evenodd" d="M1600,769c0,20.333,0,40.667,0,61c-15.182,237.746-104.874,404.873-233,533
	c-95.604,95.605-211.983,170.846-363,210c-51.098,13.248-106.992,22.572-166,26c-25.333,0-50.667,0-76,0
	c-0.027-0.973-1.224-0.776-2-1c-237.507-15.02-403.815-110.816-531-238C102.593,1233.595,12.794,1058.303,0,823
	c0-16.333,0-32.667,0-49c13.12-245.236,108.514-413.514,241-546c64.875-64.875,142.256-117.815,234-159
	C566.415,27.963,672.669,0,797,0c247.189,0,434.375,100.376,560,226C1488.793,357.792,1585.195,521.492,1600,769z M690,221
	c-6.982,1.352-11.691,4.976-18,7c12.366,6.967,22.008,16.659,27,31c5.007-13.993,14.991-23.009,29-28
	c-16.833-3.5-22.472-18.195-29-32C696.055,206.388,692.753,213.42,690,221z M1305,1162c-5.062,4.121-8.016,10.117-15,14
	c-19.109,10.623-53.073,0.246-56-22c-4.337-32.963,29.669-59.57,46-81c17.178-22.542,35.83-53.56,38-90
	c1.854-31.154-9.292-59.374-19-84c-8.437-21.4-19.557-41.509-34-55c-22.856-21.35-65.606-45.129-105-48
	c-29.618-2.158-47.878,9.315-74,15c-31.047-38.944-57.742-80.823-119-85c-6.184-0.422-12.377-0.709-19-1
	c-29.817-1.311-51.343,4.771-78,4c-11.494-0.333-24.072-4.505-36-8c-27.156-7.957-35.264-15.487-53-31
	c-6.214-5.435-19.729-11.514-22-19c-2.754-9.077,2.297-22.194,3-32c2.134-29.795,7.483-62.797-3-87c5.775,11.55,25.333,23.821,38,11
	c-7.008,0.341-11.99-1.344-15-5c-3.916-7.25-0.561-11.429-3-19c-2.429-7.54-10.504-10.896-12-17c-1.322-5.393,0.705-11.098,0-16
	c-1.444-10.045-12.555-19.346-6-30c5.011,18.79,19.442,40.299,44,30c-4.048-4.187-11.475-5.291-15-9
	c-14.534-15.291-2.999-52.286-30-61c-5.511-1.778-11.323-0.814-16-2c-26.786-6.789-36.347-32.161-54-48
	c-14.493-13.004-36.519-22.466-65-21c-3.705-33.629-23.272-56.727-62-52c22.443,3.021,36.151,42.335,10,52
	c11.124-19.292-4.886-44.671-27-40c3.66,4.699,13.398,9.454,13,20c-0.24,6.372-5.45,14.295-12,15c-10.688,1.15-21.351-16.253-37-18
	c-20.722-2.313-30.729,17.391-23,34c-7.733,0.4-7.878-6.789-13-9c-2.667,0-5.333,0-8,0c-5.494-6.84-15.744-8.922-22-15
	c-2.649-2.333-6.416-0.57-8-2c-3.8-8.533-17.68-6.987-21-16c-4.977-0.5-5.956,0.206-9-1c-9.373-11.459-27.962-11.305-35-23
	c-2.492-0.841-5.357-1.309-9-1c-1.051-4.616-4.828-6.505-11-6c-1.193-4.559-6.459-7.81-11-6c-0.791-3.209-3.631-4.369-5-7
	c-7.735,1.735-8.593-3.407-12-6c-12.837-0.163-16.005-9.995-31-8c2.05,15.95,18.671,17.329,25,29c12.671,1.033,17.141,13.477,31,16
	c-0.044,3.044,2.111,3.889,3,6c15.124,3.876,21.69,16.31,37,20c2.784,2.549,3.399,7.267,8,8c0.625,2.375,6.155-0.155,7,2
	c2.438,1.562,2.613,5.387,6,6c1.447,2.22,5.952,1.381,8,3c2.572,2.428,4.724,5.276,7,8c10.938-0.271,11.381,9.953,22,10
	c2.477,2.523,4.44,5.56,7,8c10.438-0.096,11.734,8.797,21,12c-22.817,1.183-25.632,22.368-40,32c20.32,7.807,38.357-30.051,57-6
	c-11.531,5.541-18.33,18.125-26,27c-8.978,10.389-21.59,15.466-30,24c-9.957,10.104-10.883,21.985-10,40
	c4.91,8.423,10.996,15.671,22,18c8.604-1.238,23.553,8.463,36,0c4.378-2.977,5.232-8.678,9-12c2.751-2.426,7.381-4.874,11-6
	c21.905-6.815,45.871-3.154,63-14c7.131-4.516,8.83-12.076,18-14c-5.873,37.204-25.12,66.309-34,103
	c-8.814,36.421-12.905,75.877-17,120c-5.505,5.285-10.881,5.209-16,9c-26.354,19.516-13.863,79.329-13,117
	c-32.612,0.945-73.83-15.066-102-10c-13.341,2.399-12.105,10.672-20,19c-3.815,4.024-8.592,4.572-11,9
	c-7.185,13.21,0.907,27.681,4,38c4.469,14.909,6.207,34.965,7,53c0.918,20.881-3.652,43.066,4,61c3.978,1.688,10.548,0.785,16,1
	c14.924,20.125,23.611,55.861,62,46c6.156-21.431-1.139-44.19-16-51c-5.316-1.36-9.217,3.945-12-1c-1.403-2.492,3.678-8.89,3-13
	c-0.787-4.769-12.752-12.57-18-21c-13.923-22.364-5.979-55.08-12-82c16.73-13.267,34.103-3.895,45,4
	c15.466,11.205,31.211,21.251,54,23c6.082,0.467,14.206-2.291,21-1c12.29,2.335,21.482,18.188,31,23
	c-8.383,25.295-16.785,55.867-18,85c-12.21,3.887-8.332,17.745-11,30c-1.466,6.732-7.034,13.911-9,22
	c-2.164,8.902-1.886,18.777-4,28c-3.694,16.114-11.631,35.151-18,45c-7.933,12.268-19.957,16.869-32,23
	c-3.098,14.588-13.216,17.725-23,25c-10.067,7.485-24.159,25.077-22,36c3.318,16.786,42.916,18.08,58,8
	c4.808-6.769,1.722-20.486,1-26c25.228,1.281,29.516-19.531,35-38c10.808-36.399,35.264-68.738,50-95c0-3,0-6,0-9
	c15.295-10.755,12.553-36.665,20-56c4.186-10.867,12.749-21.029,19-31c6.525-10.407,16.463-21.074,20-31
	c2.503-7.026-0.245-17.23,6-23c29.273,5.424,61.032,13.463,96,15c36.978,1.626,72.641-7.568,102-13c0.907,20.928-1.751,34.03,4,46
	c9.493,19.759,35.568,27.263,44,45c3.568,7.507,2.902,17.302,8,25c11.536,17.421,45.114,21.6,40,54
	c-1.743,11.042-29.82,31.752-39,40c-13.278,11.93-26.392,25.448-40,35c-5.589,3.923-11.832,5.753-16,10
	c-5.849,5.959-8.293,15.751-14,20c-6.58,4.899-18.84,4.895-25,10c-10.556,8.749-11.971,25.008-15,44c10.915,4.979,48.876,6.267,58-7
	c5.246-7.628-0.95-18.601,0-28c22.205,1.682,44.684-0.928,42-27c18.16-11.613,33.164-25.263,53-38c15.559-9.991,47.986-19.471,53-38
	c5.23-19.328-14.994-29.267-20-46c-6.719-22.458-1.51-41.132-7-65c23.738,20.261,43.742,44.258,85,47
	c7.709,6.624,14.379,14.288,22,21c-17.907,19.426-35.293,39.374-54,58c-35.615,4.383-23.443,48.574-26,83
	c9.531,12.469,28.742,15.258,44,22c7.555-10.776,15.209-37.096,6-52c-5.604-2.062-15.246-0.088-18-5c0.286-9.047,10.624-8.042,16-12
	c2.152-4.514,1.815-11.519,3-17c21.683-21.651,46.685-45.314,69-63c-9.002,23.906-34.281,63.304-19,96
	c4.622,9.889,13.801,16.87,25,22c12.904,36.826,49.356,72.765,99,54c15.849,7.577,25.48,12.983,40,12
	c28.498-1.93,37.519-37.059,59-37c8.906,0.024,13.069,11.002,15,20c26.236-18.16-0.054-44.688-23-44c-26.695,0.8-64.904,28.686-65-7
	c50.459,14.407,94.673-12.768,97-56c-6.18,12.819-17.366,20.634-31,26C1303.264,1177.597,1305.062,1170.729,1305,1162z M923,511
	c-11.86,4.473-24.302,8.365-34,15c11.852,6.814,23.812,13.521,35,21c4.457,12.876,10.057,24.61,16,36
	c7.212-12.122,12.45-26.216,21-37c11.298-4.369,20.969-10.365,33-14c-9.329-9.004-23.395-13.272-35-20
	c-5.593-14.74-10.604-30.062-18-43C935.074,483.074,929.364,497.364,923,511z M1192,640c-7.167,3.166-14.26,6.407-22,9
	c5.604,6.729,15.563,9.104,22,15c2.513,7.82,6.874,13.793,9,22c6.705-5.629,8.938-15.729,14-23c7.5-3.167,15.662-5.672,22-10
	c-7.826-4.174-16.398-7.602-23-13c-3.821-8.512-6.461-18.206-11-26C1199.209,622.542,1195.479,631.146,1192,640z M329,683
	c-8.528,2.472-16.46,5.54-23,10c17.4,6.6,29.637,18.363,34,38c7.646-5.354,9.256-16.745,15-24c7.538-3.462,14.948-7.052,23-10
	c-6.607-8.347-17.886-7.63-24-16c-5.825-7.974-5.091-18.758-12-27C337.322,663.322,334.347,674.347,329,683z M711,1050
	c-10.204,2.797-18.101,7.898-28,11c7.569,7.764,18.915,11.752,28,18c4.464,10.203,8.285,21.049,14,30
	c5.48-9.854,10.942-19.725,16-30c10.187-3.813,20.116-7.885,29-13c-10.076-5.258-20.275-10.392-30-16
	c-3.938-12.396-9.021-23.646-14-35C720.755,1026.422,716.195,1038.528,711,1050z"/>
</svg>
